<?xml version="1.0" encoding="UTF-8" standalone="no"?>
<!-- Created with Inkscape (http://www.inkscape.org/) -->

<svg
   xmlns:dc="http://purl.org/dc/elements/1.1/"
   xmlns:cc="http://creativecommons.org/ns#"
   xmlns:rdf="http://www.w3.org/1999/02/22-rdf-syntax-ns#"
   xmlns:svg="http://www.w3.org/2000/svg"
   xmlns="http://www.w3.org/2000/svg"
   xmlns:sodipodi="http://sodipodi.sourceforge.net/DTD/sodipodi-0.dtd"
   xmlns:inkscape="http://www.inkscape.org/namespaces/inkscape"
   width="201.78699"
   height="201.78729"
   id="svg2"
   version="1.1"
   inkscape:version="0.48.0 r9654"
   sodipodi:docname="Norsk-flagg-PP.svg"
   inkscape:export-filename="/home/sunny/src/git/piratpartiet/pp-norge/logo/bitmap/Norsk-flagg-PP.500x500.png"
   inkscape:export-xdpi="223.00999"
   inkscape:export-ydpi="223.00999">
  <defs
     id="defs4">
    <clipPath
       id="clipPath3020"
       clipPathUnits="userSpaceOnUse">
      <path
         id="path3022"
         d="M 0,1773.33 0,0 l 4946.67,0 0,1773.33 -4946.67,0 z"
         inkscape:connector-curvature="0" />
    </clipPath>
    <clipPath
       clipPathUnits="userSpaceOnUse"
       id="clipPath3015">
      <path
         sodipodi:type="arc"
         style="fill:#000000;fill-opacity:1;stroke:none"
         id="path3017"
         sodipodi:cx="80.469833"
         sodipodi:cy="57.186684"
         sodipodi:rx="35.128963"
         sodipodi:ry="35.128963"
         d="m 115.5988,57.186684 a 35.128963,35.128963 0 1 1 -70.25793,0 35.128963,35.128963 0 1 1 70.25793,0 z"
         transform="matrix(2.2903531,0,0,2.2903531,129.63435,-61.775466)" />
    </clipPath>
  </defs>
  <sodipodi:namedview
     id="base"
     pagecolor="#ffffff"
     bordercolor="#666666"
     borderopacity="1.0"
     inkscape:pageopacity="0.0"
     inkscape:pageshadow="2"
     inkscape:zoom="2.4481224"
     inkscape:cx="100.89349"
     inkscape:cy="100.89365"
     inkscape:document-units="px"
     inkscape:current-layer="layer5"
     showgrid="false"
     inkscape:window-width="1280"
     inkscape:window-height="717"
     inkscape:window-x="0"
     inkscape:window-y="27"
     inkscape:window-maximized="1"
     fit-margin-top="0"
     fit-margin-left="0"
     fit-margin-right="0"
     fit-margin-bottom="0"
     inkscape:snap-global="false"
     showguides="false">
    <inkscape:grid
       type="xygrid"
       id="grid3779"
       empspacing="10"
       visible="true"
       enabled="true"
       snapvisiblegridlinesonly="true" />
  </sodipodi:namedview>
  <metadata
     id="metadata7">
    <rdf:RDF>
      <cc:Work
         rdf:about="">
        <dc:format>image/svg+xml</dc:format>
        <dc:type
           rdf:resource="http://purl.org/dc/dcmitype/StillImage" />
        <dc:title></dc:title>
      </cc:Work>
    </rdf:RDF>
  </metadata>
  <g
     inkscape:groupmode="layer"
     id="layer1"
     inkscape:label="Norske flagg"
     style="display:none">
    <g
       style="display:inline"
       id="g3835"
       transform="translate(38.572524,65.586239)">
      <rect
         style="fill:#ef2b2d;fill-opacity:1;stroke:none"
         id="rect3800"
         width="160"
         height="160.00101"
         x="230"
         y="-8.2127075" />
      <path
         d="m 289.95331,-8.2137194 40.00025,0 0,160.0010094 -40.00025,0 z m -60.00038,60.0003794 160.04707,0 0,40.000249 -160.04707,0 z"
         style="fill:#ffffff;fill-opacity:1;stroke:none"
         id="path3802"
         inkscape:connector-curvature="0" />
      <path
         d="m 300,-8.2127075 20,0 0,159.9999975 -20,0 z m -70,69.9999995 160,0 0,20 -160,0 z"
         style="fill:#002868;fill-opacity:1;stroke:none"
         id="rect3827"
         inkscape:connector-curvature="0" />
    </g>
    <g
       style="display:inline"
       id="g3793"
       transform="matrix(1.1674512,0,0,1.1674512,134.40827,-1.3106411)">
      <rect
         y="1.7872925"
         x="260"
         height="160"
         width="220"
         id="rect3009"
         style="fill:#ef2b2d;fill-opacity:1;stroke:none" />
      <path
         d="m 260,61.787292 220,0 0,39.999998 -220,0 z m 60,-59.9999995 40,0 0,159.9999975 -40,0 z"
         style="fill:#ffffff;fill-opacity:1;stroke:none"
         id="rect3783"
         inkscape:connector-curvature="0" />
      <path
         id="rect3785"
         d="m 330,1.78125 0,70 -70,0 0,20 70,0 0,70 20,0 0,-70 130,0 0,-20 -130,0 0,-70 -20,0 z"
         style="fill:#002868;fill-opacity:1;stroke:none"
         inkscape:connector-curvature="0" />
    </g>
  </g>
  <g
     inkscape:groupmode="layer"
     id="layer5"
     inkscape:label="Runding"
     style="display:inline">
    <g
       id="g3867"
       transform="matrix(1.2260727,0,0,1.2260727,-284.01816,16.046682)"
       clip-path="url(#clipPath3015)">
      <rect
         y="-10.798271"
         x="233.96222"
         height="160.00101"
         width="160"
         id="rect3850"
         style="fill:#ef2b2d;fill-opacity:1;stroke:none" />
      <path
         id="path3852"
         d="m 233.91515,49.201096 160.04707,0 0,40.000249 -160.04707,0 z"
         style="fill:#ffffff;fill-opacity:1;stroke:none"
         inkscape:connector-curvature="0" />
      <path
         id="path3854"
         d="m 233.96222,59.201728 160,0 0,20 -160,0 z"
         style="fill:#002868;fill-opacity:1;stroke:none"
         inkscape:connector-curvature="0" />
    </g>
    <g
       transform="translate(-73.208693,-431.46853)"
       id="g3037">
      <path
         inkscape:connector-curvature="0"
         d="m 174.10218,431.46853 c -55.72162,0 -100.893487,45.17125 -100.893487,100.89375 0,55.72263 45.171867,100.89355 100.893487,100.89355 55.72225,0 100.8935,-45.17092 100.8935,-100.89355 0,-55.7225 -45.17125,-100.89375 -100.8935,-100.89375 l 0,0 z m 0,7.5 c 51.49725,0 93.3935,41.8975 93.3935,93.39375 0,51.49613 -41.89625,93.3935 -93.3935,93.3935 -51.497,0 -93.393499,-41.89737 -93.393499,-93.3935 0,-51.49625 41.896499,-93.39375 93.393499,-93.39375"
         style="fill:#000000;fill-opacity:1;fill-rule:nonzero;stroke:none"
         id="path3056" />
      <path
         inkscape:connector-curvature="0"
         d="m 157.27118,548.95853 c -4.50587,2.5815 -6.59175,4.53363 -6.59175,4.53363 l 0.41213,-75.41988 c 0,0 5.53025,-0.17 14.00725,5.77 12.15337,8.5175 13.54687,13.97625 14.83162,31.3225 1.351,18.24238 -12.03912,27.71263 -22.65925,33.79375 z m 63.85825,-75.0075 c -10.555,-4.35 -19.46875,-6.87875 -37.90312,-7.00625 -26.71825,-0.1825 -32.13475,2.47375 -32.13475,2.47375 l 0,-14.01375 -9.47613,0 0,16.07375 c 0,0 -1.99025,0.98125 -4.11962,2.06 -2.53175,1.285 -4.53225,2.88625 -4.53225,2.88625 l 8.23975,0 0,87.37013 c 0,0 -4.11963,11.7485 -3.7075,18.54737 0.41212,6.79975 7.82762,24.31738 7.82762,24.31738 0,0 -5.103,-15.14263 0,-27.20213 3.23725,-7.649 5.14988,-12.15925 14.8315,-15.66262 9.68213,-3.5 24.92588,-6.18113 39.55075,-9.064 14.62625,-2.88625 24.925,-6.39013 30.9,-9.48 5.97375,-3.09125 15.86125,-8.86025 16.89125,-22.25625 1.03,-13.39363 -2.65875,-39.26988 -26.3675,-49.04363"
         style="fill:#1b1b1b;fill-opacity:1;fill-rule:evenodd;stroke:none"
         id="path3058" />
    </g>
  </g>
</svg>
