<?xml version="1.0" encoding="UTF-8" standalone="no"?>
<!-- Created with Inkscape (http://www.inkscape.org/) -->

<svg
   xmlns:dc="http://purl.org/dc/elements/1.1/"
   xmlns:cc="http://creativecommons.org/ns#"
   xmlns:rdf="http://www.w3.org/1999/02/22-rdf-syntax-ns#"
   xmlns:svg="http://www.w3.org/2000/svg"
   xmlns="http://www.w3.org/2000/svg"
   xmlns:sodipodi="http://sodipodi.sourceforge.net/DTD/sodipodi-0.dtd"
   xmlns:inkscape="http://www.inkscape.org/namespaces/inkscape"
   width="744.09448819"
   height="1052.3622047"
   id="svg2"
   version="1.1"
   inkscape:version="0.48.0 r9654"
   sodipodi:docname="New document 1">
  <defs
     id="defs4">
    <clipPath
       id="clipPath3020"
       clipPathUnits="userSpaceOnUse">
      <path
         id="path3022"
         d="M 0,1773.33 0,0 l 4946.67,0 0,1773.33 -4946.67,0 z" />
    </clipPath>
  </defs>
  <sodipodi:namedview
     id="base"
     pagecolor="#ffffff"
     bordercolor="#666666"
     borderopacity="1.0"
     inkscape:pageopacity="0.0"
     inkscape:pageshadow="2"
     inkscape:zoom="0.35"
     inkscape:cx="375"
     inkscape:cy="520"
     inkscape:document-units="px"
     inkscape:current-layer="layer1"
     showgrid="false"
     inkscape:window-width="515"
     inkscape:window-height="459"
     inkscape:window-x="0"
     inkscape:window-y="27"
     inkscape:window-maximized="0" />
  <metadata
     id="metadata7">
    <rdf:RDF>
      <cc:Work
         rdf:about="">
        <dc:format>image/svg+xml</dc:format>
        <dc:type
           rdf:resource="http://purl.org/dc/dcmitype/StillImage" />
        <dc:title></dc:title>
      </cc:Work>
    </rdf:RDF>
  </metadata>
  <g
     inkscape:label="Layer 1"
     inkscape:groupmode="layer"
     id="layer1">
    <g
       transform="matrix(1.25,0,0,-1.25,65.906931,641.26853)"
       inkscape:label="ink_ext_XXXXXX"
       id="g3012">
      <g
         transform="scale(0.1,0.1)"
         id="g3014">
        <g
           id="g3016">
          <g
             clip-path="url(#clipPath3020)"
             id="g3018">
            <path
               id="path3024"
               style="fill:#ffffff;fill-opacity:1;fill-rule:nonzero;stroke:none"
               d="m 629.215,174.672 4257.86,0 0,1405.33 -4257.86,0 0,-1405.33 z"
               inkscape:connector-curvature="0" />
            <path
               id="path3026"
               style="fill:#ff8800;fill-opacity:1;fill-rule:evenodd;stroke:none"
               d="m 1086.87,174.672 3800.2,0 0,685.797 -3800.2,0 0,-685.797 z"
               inkscape:connector-curvature="0" />
            <path
               id="path3028"
               style="fill:#010101;fill-opacity:1;fill-rule:nonzero;stroke:none"
               d="m 2048.93,1230.81 36.01,0 c 28.33,0 48.22,4.92 59.68,14.76 11.46,9.85 17.2,22.45 17.2,37.81 0,14.93 -4.98,27.59 -14.93,37.96 -9.95,10.39 -28.65,15.59 -56.11,15.59 l -41.85,0 0,-106.12 z m -147.59,202.81 244.26,0 c 53.19,0 93.04,-12.65 119.53,-37.97 26.49,-25.31 39.74,-61.33 39.74,-108.05 0,-48.03 -14.44,-85.56 -43.31,-112.61 -28.86,-27.03 -72.93,-40.56 -132.18,-40.56 l -80.45,0 0,-176.52 -147.59,0 0,475.71"
               inkscape:connector-curvature="0" />
            <path
               id="path3030"
               style="fill:#010101;fill-opacity:1;fill-rule:nonzero;stroke:none"
               d="m 2510.49,957.91 147.273,0 0,475.711 -147.273,0 0,-475.711 z"
               inkscape:connector-curvature="0" />
            <path
               id="path3032"
               style="fill:#010101;fill-opacity:1;fill-rule:nonzero;stroke:none"
               d="m 3035.62,1240.87 61.96,0 c 6.7,0 19.67,2.16 38.93,6.48 9.73,1.96 17.67,6.93 23.84,14.94 6.16,7.99 9.24,17.19 9.24,27.58 0,15.36 -4.86,27.14 -14.59,35.37 -9.73,8.22 -28.01,12.33 -54.83,12.33 l -64.55,0 0,-96.7 z m -147.59,-282.96 0,475.71 244.9,0 c 45.42,0 80.13,-3.89 104.14,-11.68 24,-7.79 43.35,-22.23 58.06,-43.32 14.7,-21.09 22.05,-46.78 22.05,-77.07 0,-26.41 -5.62,-49.16 -16.87,-68.31 -11.25,-19.15 -26.73,-34.67 -46.42,-46.56 -12.55,-7.58 -29.74,-13.85 -51.6,-18.82 17.5,-5.86 30.25,-11.7 38.25,-17.54 5.4,-3.91 13.23,-12.23 23.5,-25.02 10.26,-12.77 17.13,-22.62 20.58,-29.55 l 71.17,-137.84 -166.04,0 -78.54,145.37 c -9.96,18.82 -18.82,31.04 -26.61,36.67 -10.59,7.35 -22.59,11.03 -36,11.03 l -12.98,0 0,-193.07 -147.59,0"
               inkscape:connector-curvature="0" />
            <path
               id="path3034"
               style="fill:#010101;fill-opacity:1;fill-rule:nonzero;stroke:none"
               d="m 3787.6,1139.31 -52.49,171 -51.94,-171 104.43,0 z m 30.48,-102.88 -166.83,0 -23.18,-78.52 -150.03,0 178.73,475.71 160.29,0 178.69,-475.71 -153.88,0 -23.79,78.52"
               inkscape:connector-curvature="0" />
            <path
               id="path3036"
               style="fill:#010101;fill-opacity:1;fill-rule:nonzero;stroke:none"
               d="m 4086.21,1433.62 446.67,0 0,-117.47 -149.87,0 0,-358.24 -146.94,0 0,358.24 -149.86,0 0,117.47"
               inkscape:connector-curvature="0" />
            <path
               id="path3038"
               style="fill:#ffffff;fill-opacity:1;fill-rule:nonzero;stroke:none"
               d="m 2021.98,563.441 29.84,0 c 23.47,0 39.95,4.079 49.45,12.231 9.49,8.156 14.24,18.598 14.24,31.316 0,12.383 -4.12,22.852 -12.36,31.461 -8.24,8.602 -23.75,12.91 -46.49,12.91 l -34.68,0 0,-87.918 z m -122.28,168.028 202.38,0 c 44.07,0 77.09,-10.481 99.03,-31.449 21.95,-20.981 32.93,-50.809 32.93,-89.532 0,-39.789 -11.96,-70.886 -35.89,-93.289 -23.91,-22.41 -60.42,-33.609 -109.51,-33.609 l -66.66,0 0,-146.262 -122.28,0 0,394.141"
               inkscape:connector-curvature="0" />
            <path
               id="path3040"
               style="fill:#ffffff;fill-opacity:1;fill-rule:nonzero;stroke:none"
               d="m 2478.95,487.629 -43.49,141.68 -43.03,-141.68 86.52,0 z m 25.26,-85.238 -138.22,0 -19.21,-65.063 -124.31,0 148.09,394.141 132.8,0 148.05,-394.141 -127.49,0 -19.71,65.063"
               inkscape:connector-curvature="0" />
            <path
               id="path3042"
               style="fill:#ffffff;fill-opacity:1;fill-rule:nonzero;stroke:none"
               d="m 2825.01,571.781 51.34,0 c 5.55,0 16.3,1.778 32.25,5.367 8.07,1.622 14.65,5.743 19.75,12.372 5.11,6.628 7.67,14.25 7.67,22.851 0,12.731 -4.03,22.488 -12.1,29.309 -8.07,6.808 -23.2,10.211 -45.42,10.211 l -53.49,0 0,-80.11 z m -122.28,-234.453 0,394.141 202.92,0 c 37.63,0 66.38,-3.219 86.27,-9.668 19.88,-6.461 35.92,-18.422 48.1,-35.891 12.19,-17.48 18.29,-38.769 18.29,-63.859 0,-21.86 -4.67,-40.731 -13.99,-56.59 -9.32,-15.871 -22.15,-28.731 -38.46,-38.59 -10.4,-6.269 -24.64,-11.473 -42.75,-15.59 14.49,-4.84 25.06,-9.691 31.69,-14.531 4.47,-3.219 10.97,-10.141 19.47,-20.719 8.51,-10.59 14.19,-18.742 17.05,-24.492 l 58.97,-114.211 -137.57,0 -65.08,120.453 c -8.24,15.598 -15.58,25.719 -22.04,30.379 -8.78,6.09 -18.72,9.141 -29.83,9.141 l -10.76,0 0,-159.973 -122.28,0"
               inkscape:connector-curvature="0" />
            <path
               id="path3044"
               style="fill:#ffffff;fill-opacity:1;fill-rule:nonzero;stroke:none"
               d="m 3107.74,731.469 370.09,0 0,-97.321 -124.17,0 0,-296.82 -121.75,0 0,296.82 -124.17,0 0,97.321"
               inkscape:connector-curvature="0" />
            <path
               id="path3046"
               style="fill:#ffffff;fill-opacity:1;fill-rule:nonzero;stroke:none"
               d="m 3548.77,337.328 122.02,0 0,394.141 -122.02,0 0,-394.141 z"
               inkscape:connector-curvature="0" />
            <path
               id="path3048"
               style="fill:#ffffff;fill-opacity:1;fill-rule:nonzero;stroke:none"
               d="m 3768.87,731.469 326.27,0 0,-84.149 -204.26,0 0,-62.64 189.49,0 0,-80.379 -189.49,0 0,-77.711 210.18,0 0,-89.262 -332.19,0 0,394.141"
               inkscape:connector-curvature="0" />
            <path
               id="path3050"
               style="fill:#ffffff;fill-opacity:1;fill-rule:nonzero;stroke:none"
               d="m 4149.97,731.469 370.08,0 0,-97.321 -124.17,0 0,-296.82 -121.74,0 0,296.82 -124.17,0 0,97.321"
               inkscape:connector-curvature="0" />
            <path
               id="path3052"
               style="fill:#ffffff;fill-opacity:1;fill-rule:nonzero;stroke:none"
               d="M 865.562,94.1016 C 437.043,94.1016 88.4141,442.73 88.4141,871.25 c 0,428.52 348.6289,777.15 777.1479,777.15 428.528,0 777.148,-348.63 777.148,-777.15 0,-428.52 -348.62,-777.1484 -777.148,-777.1484"
               inkscape:connector-curvature="0" />
            <path
               id="path3054"
               style="fill:#000000;fill-opacity:1;fill-rule:nonzero;stroke:none"
               d="m 865.562,1678.4 c -445.773,0 -807.1479,-361.37 -807.1479,-807.15 0,-445.781 361.3749,-807.1484 807.1479,-807.1484 445.778,0 807.148,361.3674 807.148,807.1484 0,445.78 -361.37,807.15 -807.148,807.15 l 0,0 z m 0,-60 c 411.978,0 747.148,-335.18 747.148,-747.15 0,-411.969 -335.17,-747.148 -747.148,-747.148 -411.976,0 -747.148,335.179 -747.148,747.148 0,411.97 335.172,747.15 747.148,747.15"
               inkscape:connector-curvature="0" />
            <path
               id="path3056"
               style="fill:#1b1b1b;fill-opacity:1;fill-rule:evenodd;stroke:none"
               d="M 730.914,738.48 C 694.867,717.828 678.18,702.211 678.18,702.211 l 3.297,603.359 c 0,0 44.242,1.36 112.058,-46.16 C 890.762,1191.27 901.91,1147.6 912.188,1008.83 922.996,862.891 815.875,787.129 730.914,738.48 z m 510.866,600.06 c -84.44,34.8 -155.75,55.03 -303.225,56.05 -213.746,1.46 -257.078,-19.79 -257.078,-19.79 l 0,112.11 -75.809,0 0,-128.59 c 0,0 -15.922,-7.85 -32.957,-16.48 -20.254,-10.28 -36.258,-23.09 -36.258,-23.09 l 65.918,0 0,-698.961 c 0,0 -32.957,-93.988 -29.66,-148.379 3.297,-54.398 62.621,-194.539 62.621,-194.539 0,0 -40.824,121.141 0,217.617 25.898,61.192 41.199,97.274 118.652,125.301 77.457,28 199.407,49.449 316.406,72.512 117.01,23.09 199.4,51.121 247.2,75.84 47.79,24.73 126.89,70.882 135.13,178.05 8.24,107.149 -21.27,314.159 -210.94,392.349"
               inkscape:connector-curvature="0" />
          </g>
        </g>
      </g>
    </g>
  </g>
</svg>
