<?xml version="1.0" encoding="utf-8"?>
<!-- Generator: Adobe Illustrator 15.0.0, SVG Export Plug-In . SVG Version: 6.00 Build 0)  -->
<!DOCTYPE svg PUBLIC "-//W3C//DTD SVG 1.1//EN" "http://www.w3.org/Graphics/SVG/1.1/DTD/svg11.dtd">
<svg version="1.1"
   id="svg2" inkscape:version="0.48.0 r9654" sodipodi:docname="Piratpartiet_Norge-01.svg" xmlns:rdf="http://www.w3.org/1999/02/22-rdf-syntax-ns#" xmlns:inkscape="http://www.inkscape.org/namespaces/inkscape" xmlns:sodipodi="http://sodipodi.sourceforge.net/DTD/sodipodi-0.dtd" xmlns:dc="http://purl.org/dc/elements/1.1/" xmlns:cc="http://creativecommons.org/ns#" xmlns:svg="http://www.w3.org/2000/svg"
	 xmlns="http://www.w3.org/2000/svg" xmlns:xlink="http://www.w3.org/1999/xlink" x="0px" y="0px" width="603.582px"
	 height="201.787px" viewBox="0 0 603.582 201.787" enable-background="new 0 0 603.582 201.787" xml:space="preserve">
<sodipodi:namedview  id="base" inkscape:window-y="27" inkscape:window-x="0" inkscape:window-height="717" inkscape:window-width="1280" inkscape:current-layer="layer1" inkscape:document-units="px" inkscape:pageshadow="2" inkscape:pageopacity="0.0" fit-margin-bottom="0" fit-margin-right="0" pagecolor="#ffffff" inkscape:cy="100.89365" fit-margin-left="0" fit-margin-top="0" inkscape:cx="301.79132" showgrid="false" inkscape:zoom="1.9069468" bordercolor="#666666" borderopacity="1.0" inkscape:window-maximized="1">
	</sodipodi:namedview>
<g id="layer1" transform="translate(-73.208693,-431.46853)" inkscape:groupmode="layer" inkscape:label="Layer 1">
	<g>
		<defs>
			<rect id="SVGID_1_" x="65.907" y="419.602" width="618.333" height="221.666"/>
		</defs>
		<clipPath id="SVGID_2_">
			<use xlink:href="#SVGID_1_"  overflow="visible"/>
		</clipPath>
		<g id="g3018" transform="matrix(0.125,0,0,-0.125,65.906931,641.26853)" clip-path="url(#SVGID_2_)">
			<path id="path3024" inkscape:connector-curvature="0" fill="#FFFFFF" d="M629.213,174.674h4257.859v1405.328H629.213V174.674
				L629.213,174.674z"/>
			<path id="path3026" inkscape:connector-curvature="0" fill="#FF8800" d="M1086.869,174.674h3800.195v685.797H1086.869V174.674z"
				/>
			<path id="path3028" inkscape:connector-curvature="0" d="M4887.064,1579.998H629.213V174.674h4257.852V1579.998z
				 M4827.064,1519.998V234.674H689.213v1285.324H4827.064"/>
			<path id="path3030" inkscape:connector-curvature="0" fill="#010101" d="M2048.932,1230.811h36.008
				c28.328,0,48.219,4.91,59.68,14.758c11.461,9.844,17.203,22.441,17.203,37.813c0,14.918-4.984,27.578-14.93,37.969
				c-9.953,10.379-28.656,15.563-56.109,15.563h-41.852V1230.811L2048.932,1230.811z M1901.338,1433.611h244.266
				c53.188,0,93.039-12.652,119.523-37.961c26.492-25.309,39.742-61.332,39.742-108.051c0-48.031-14.438-85.57-43.313-112.602
				c-28.859-27.047-72.93-40.566-132.18-40.566h-80.445v-176.52h-147.594V1433.611"/>
			<path id="path3032" inkscape:connector-curvature="0" fill="#010101" d="M2510.486,957.912h147.273v475.703h-147.273V957.912z"/>
			<path id="path3034" inkscape:connector-curvature="0" fill="#010101" d="M3035.619,1240.869h61.961
				c6.695,0,19.672,2.16,38.93,6.492c9.727,1.949,17.672,6.918,23.836,14.93c6.164,8,9.242,17.188,9.242,27.57
				c0,15.367-4.859,27.148-14.586,35.367c-9.734,8.23-28.016,12.34-54.836,12.34h-64.547V1240.869L3035.619,1240.869z
				 M2888.025,957.912v475.699h244.906c45.414,0,80.125-3.883,104.133-11.68c24-7.781,43.352-22.223,58.063-43.32
				c14.703-21.09,22.055-46.77,22.055-77.07c0-26.379-5.625-49.16-16.875-68.301s-26.727-34.672-46.422-46.559
				c-12.547-7.582-29.734-13.852-51.594-18.832c17.5-5.84,30.25-11.688,38.25-17.531c5.398-3.887,13.227-12.227,23.5-25.008
				c10.258-12.781,17.125-22.629,20.578-29.563l71.172-137.836h-166.047l-78.539,145.367c-9.961,18.832-18.82,31.039-26.609,36.672
				c-10.586,7.348-22.586,11.027-36,11.027h-12.977V957.912H2888.025"/>
			<path id="path3036" inkscape:connector-curvature="0" fill="#010101" d="M3787.596,1139.299l-52.484,171.012l-51.945-171.012
				H3787.596z M3818.08,1036.432h-166.828l-23.188-78.52h-150.023l178.727,475.699h160.289l178.695-475.699h-153.883
				L3818.08,1036.432"/>
			<path id="path3038" inkscape:connector-curvature="0" fill="#010101" d="M4086.205,1433.611h446.672V1316.15H4383.01V957.912
				h-146.945v358.238h-149.859V1433.611"/>
			<path id="path3040" inkscape:connector-curvature="0" fill="#FFFFFF" d="M2021.979,563.439h29.844
				c23.469,0,39.945,4.078,49.445,12.234c9.492,8.156,14.242,18.594,14.242,31.313c0,12.391-4.117,22.859-12.359,31.469
				c-8.242,8.594-23.75,12.906-46.492,12.906h-34.68V563.439L2021.979,563.439z M1899.697,731.471h202.383
				c44.07,0,77.094-10.484,99.031-31.453c21.945-20.984,32.93-50.813,32.93-89.531c0-39.781-11.961-70.883-35.891-93.281
				c-23.914-22.422-60.422-33.609-109.508-33.609h-66.664V337.33h-122.281V731.471"/>
			<path id="path3042" inkscape:connector-curvature="0" fill="#FFFFFF" d="M2478.947,487.627l-43.484,141.688l-43.031-141.688
				H2478.947z M2504.205,402.393h-138.219l-19.203-65.063h-124.313l148.086,394.141h132.805l148.047-394.141h-127.492
				L2504.205,402.393"/>
			<path id="path3044" inkscape:connector-curvature="0" fill="#FFFFFF" d="M2825.01,571.783h51.336
				c5.555,0,16.305,1.781,32.25,5.359c8.07,1.625,14.656,5.75,19.75,12.375c5.109,6.625,7.672,14.25,7.672,22.859
				c0,12.727-4.031,22.484-12.102,29.305c-8.07,6.805-23.195,10.211-45.414,10.211h-53.492V571.783z M2702.729,337.33v394.141
				h202.922c37.625,0,66.375-3.219,86.266-9.672c19.883-6.453,35.922-18.422,48.102-35.891
				c12.188-17.477,18.289-38.766,18.289-63.859c0-21.859-4.672-40.734-13.992-56.594c-9.313-15.859-22.148-28.727-38.453-38.578
				c-10.406-6.273-24.641-11.484-42.75-15.594c14.484-4.844,25.055-9.688,31.688-14.531c4.469-3.219,10.969-10.141,19.469-20.719
				c8.508-10.594,14.188-18.75,17.047-24.5l58.977-114.203h-137.57l-65.086,120.453c-8.234,15.594-15.578,25.719-22.039,30.375
				c-8.781,6.094-18.719,9.141-29.828,9.141h-10.758V337.33H2702.729"/>
			<path id="path3046" inkscape:connector-curvature="0" fill="#FFFFFF" d="M3107.736,731.471h370.094v-97.328h-124.172V337.33
				h-121.75v296.813h-124.172V731.471"/>
			<path id="path3048" inkscape:connector-curvature="0" fill="#FFFFFF" d="M3548.768,337.33h122.023v394.141h-122.023V337.33z"/>
			<path id="path3050" inkscape:connector-curvature="0" fill="#FFFFFF" d="M3768.869,731.471h326.266v-84.156h-204.258v-62.633
				h189.492v-80.383h-189.492v-77.703h210.18V337.33h-332.188V731.471"/>
			<path id="path3052" inkscape:connector-curvature="0" fill="#FFFFFF" d="M4149.971,731.471h370.078v-97.328h-124.172V337.33
				h-121.742v296.813h-124.164V731.471"/>
			<path id="path3054" inkscape:connector-curvature="0" fill="#FFFFFF" d="M865.565,94.096
				c-428.523,0-777.148,348.633-777.148,777.152c0,428.523,348.625,777.152,777.148,777.152s777.148-348.629,777.148-777.152
				C1642.713,442.729,1294.088,94.096,865.565,94.096"/>
			<path id="path3056" inkscape:connector-curvature="0" d="M865.565,1678.4c-445.773,0-807.148-361.371-807.148-807.152
				c0-445.777,361.375-807.152,807.148-807.152s807.148,361.375,807.148,807.152C1672.713,1317.029,1311.338,1678.4,865.565,1678.4
				L865.565,1678.4z M865.565,1618.4c411.977,0,747.148-335.18,747.148-747.152c0-411.965-335.172-747.145-747.148-747.145
				s-747.148,335.18-747.148,747.145C118.416,1283.221,453.588,1618.4,865.565,1618.4"/>
			<path id="path3058" inkscape:connector-curvature="0" fill="#1B1B1B" d="M730.916,738.479
				c-36.047-20.648-52.734-36.273-52.734-36.273l3.297,603.363c0,0,44.242,1.363,112.055-46.156
				c97.227-68.141,108.375-111.813,118.656-250.582C922.994,862.893,815.877,787.127,730.916,738.479z M1241.783,1338.541
				c-84.445,34.801-155.75,55.027-303.227,56.051c-213.75,1.457-257.078-19.793-257.078-19.793v112.113h-75.813v-128.594
				c0,0-15.922-7.848-32.953-16.477c-20.258-10.281-36.258-23.094-36.258-23.094h65.914V619.783c0,0-32.953-93.984-29.656-148.375
				s62.617-194.531,62.617-194.531s-40.82,121.141,0,217.609c25.898,61.195,41.203,97.281,118.656,125.297
				c77.453,28,199.406,49.453,316.406,72.516c117.008,23.094,199.398,51.125,247.195,75.844
				c47.789,24.734,126.891,70.875,135.133,178.047C1460.963,1053.342,1431.447,1260.35,1241.783,1338.541"/>
		</g>
	</g>
</g>
<g>
	<path fill="#FFFFFF" d="M124.173,86.017h1.188v1.529h-1.188V86.017z"/>
	<path fill="#FFFFFF" d="M128.709,74.946h0.882l8.694,10.961V74.946h0.9v12.6h-0.702l-8.874-11.196v11.196h-0.9V74.946z"/>
	<path fill="#FFFFFF" d="M148.688,87.762c-0.96,0-1.827-0.177-2.601-0.53c-0.774-0.354-1.438-0.828-1.989-1.422
		c-0.552-0.595-0.978-1.281-1.278-2.062c-0.3-0.78-0.449-1.602-0.449-2.466v-0.036c0-0.864,0.152-1.689,0.459-2.475
		c0.306-0.786,0.734-1.479,1.287-2.079c0.551-0.6,1.217-1.077,1.998-1.431c0.779-0.354,1.649-0.531,2.609-0.531
		c0.947,0,1.813,0.177,2.592,0.531c0.78,0.354,1.446,0.828,1.998,1.422c0.552,0.594,0.979,1.281,1.278,2.061
		c0.3,0.78,0.45,1.602,0.45,2.466c0.012,0.012,0.012,0.024,0,0.036c0,0.864-0.153,1.688-0.459,2.475
		c-0.307,0.786-0.735,1.479-1.287,2.079c-0.553,0.6-1.221,1.077-2.008,1.432C150.504,87.585,149.636,87.762,148.688,87.762z
		 M148.724,86.916c0.779,0,1.497-0.147,2.15-0.44c0.654-0.295,1.219-0.696,1.693-1.207c0.473-0.51,0.842-1.106,1.106-1.791
		c0.264-0.684,0.396-1.416,0.396-2.196v-0.036c0-0.78-0.135-1.515-0.404-2.205c-0.271-0.69-0.643-1.29-1.116-1.8
		c-0.474-0.51-1.042-0.915-1.701-1.215c-0.66-0.3-1.38-0.45-2.16-0.45s-1.497,0.147-2.151,0.441s-1.218,0.696-1.691,1.206
		c-0.475,0.51-0.844,1.107-1.107,1.791c-0.264,0.684-0.396,1.417-0.396,2.196v0.036c0,0.78,0.135,1.515,0.405,2.204
		c0.27,0.691,0.642,1.291,1.115,1.801c0.475,0.51,1.041,0.915,1.701,1.215C147.224,86.767,147.944,86.916,148.724,86.916z"/>
</g>
</svg>
