<?xml version="1.0" encoding="UTF-8" standalone="no"?>
<!-- Generator: Adobe Illustrator 15.0.0, SVG Export Plug-In . SVG Version: 6.00 Build 0)  -->

<svg
   xmlns:dc="http://purl.org/dc/elements/1.1/"
   xmlns:cc="http://creativecommons.org/ns#"
   xmlns:rdf="http://www.w3.org/1999/02/22-rdf-syntax-ns#"
   xmlns:svg="http://www.w3.org/2000/svg"
   xmlns="http://www.w3.org/2000/svg"
   xmlns:sodipodi="http://sodipodi.sourceforge.net/DTD/sodipodi-0.dtd"
   xmlns:inkscape="http://www.inkscape.org/namespaces/inkscape"
   version="1.1"
   id="svg2"
   inkscape:version="0.48.3.1 r9886"
   sodipodi:docname="Piratpartiet_Norge.NO_blFlag.svg"
   x="0px"
   y="0px"
   width="201.78799"
   height="201.78799"
   viewBox="0 0 201.788 201.78799"
   enable-background="new 0 0 603.582 201.787"
   xml:space="preserve"><metadata
   id="metadata3102"><rdf:RDF><cc:Work
       rdf:about=""><dc:format>image/svg+xml</dc:format><dc:type
         rdf:resource="http://purl.org/dc/dcmitype/StillImage" /><dc:title></dc:title></cc:Work></rdf:RDF></metadata><defs
   id="defs3100" />
<sodipodi:namedview
   id="base"
   inkscape:window-y="24"
   inkscape:window-x="65"
   inkscape:window-height="576"
   inkscape:window-width="959"
   inkscape:current-layer="layer5"
   inkscape:document-units="px"
   inkscape:pageshadow="2"
   inkscape:pageopacity="0.0"
   fit-margin-bottom="0"
   fit-margin-right="0"
   pagecolor="#ffffff"
   inkscape:cy="102.9927"
   fit-margin-left="0"
   fit-margin-top="0"
   inkscape:cx="88.886231"
   showgrid="false"
   inkscape:zoom="1.9069468"
   bordercolor="#666666"
   borderopacity="1.0"
   inkscape:window-maximized="1">
  </sodipodi:namedview>
<g
   id="layer2"
   inkscape:groupmode="layer"
   inkscape:label="Hvit tekstbakgrunn"
   transform="translate(-212.9051,-2.0980663)">
	
</g>
<g
   id="layer3"
   inkscape:groupmode="layer"
   inkscape:label="Orange tekstbakgrunn"
   transform="translate(-212.9051,-2.0980663)">
	
</g>
<g
   id="layer4"
   inkscape:groupmode="layer"
   inkscape:label="Tekst"
   transform="translate(-212.9051,-2.0980663)">
	
	
</g>
<g
   id="layer6"
   inkscape:groupmode="layer"
   inkscape:label="Tekstomriss"
   transform="translate(-212.9051,-2.0980663)">
	
</g>
<g
   id="layer5"
   inkscape:groupmode="layer"
   inkscape:label="Runding"
   transform="translate(-212.9051,-2.0980663)">
	<g
   id="g3037"
   transform="translate(139.6971,-429.37094)">
		<path
   id="path3054"
   inkscape:connector-curvature="0"
   d="m 174.102,629.507 c -53.565,0 -97.144,-43.579 -97.144,-97.144 0,-53.565 43.578,-97.144 97.144,-97.144 53.566,0 97.144,43.579 97.144,97.144 0,53.564 -43.578,97.144 -97.144,97.144"
   style="fill:#ffffff" />
		<path
   id="path3056"
   inkscape:connector-curvature="0"
   d="m 174.102,431.469 c -55.722,0 -100.894,45.171 -100.894,100.894 0,55.722 45.172,100.894 100.894,100.894 55.722,0 100.894,-45.172 100.894,-100.894 0,-55.723 -45.172,-100.894 -100.894,-100.894 l 0,0 0,0 z m 0,7.5 c 51.497,0 93.394,41.897 93.394,93.394 0,51.496 -41.896,93.393 -93.394,93.393 -51.498,0 -93.394,-41.897 -93.394,-93.393 0.001,-51.497 41.897,-93.394 93.394,-93.394"
   style="fill:#ff8800;fill-opacity:1" />
		<path
   id="path3058"
   inkscape:connector-curvature="0"
   d="m 157.271,548.959 c -4.506,2.581 -6.592,4.534 -6.592,4.534 l 0.412,-75.42 c 0,0 5.53,-0.17 14.007,5.77 12.153,8.518 13.547,13.977 14.832,31.323 1.351,18.241 -12.038,27.712 -22.659,33.793 l 0,0 z m 63.859,-75.008 c -10.556,-4.35 -19.469,-6.878 -37.903,-7.006 -26.719,-0.182 -32.135,2.474 -32.135,2.474 v -14.014 h -9.477 v 16.074 c 0,0 -1.99,0.981 -4.119,2.06 -2.532,1.285 -4.532,2.887 -4.532,2.887 h 8.239 v 87.371 c 0,0 -4.119,11.748 -3.707,18.547 0.412,6.799 7.827,24.316 7.827,24.316 0,0 -5.103,-15.143 0,-27.201 3.237,-7.649 5.15,-12.16 14.832,-15.662 9.682,-3.5 24.926,-6.182 39.551,-9.064 14.626,-2.887 24.925,-6.391 30.899,-9.48 5.974,-3.092 15.861,-8.859 16.892,-22.256 1.03,-13.396 -2.659,-39.272 -26.367,-49.046"
   style="fill:#ff8800;fill-opacity:1" />
	</g>
</g>
<g
   id="g3092"
   transform="translate(1.14709,-1.9028785)">
	<path
   d="m 121.482,86.126 h 1.188 v 1.529 h -1.188 v -1.529 z"
   id="path3094"
   inkscape:connector-curvature="0"
   style="fill:#ffffff" />
	<path
   d="m 126.018,75.056 h 0.882 l 8.694,10.961 V 75.056 h 0.9 v 12.6 h -0.702 l -8.874,-11.195 v 11.195 h -0.9 v -12.6 z"
   id="path3096"
   inkscape:connector-curvature="0"
   style="fill:#ffffff" />
	<path
   d="m 145.997,87.873 c -0.96,0 -1.827,-0.178 -2.601,-0.531 -0.774,-0.354 -1.438,-0.828 -1.989,-1.422 -0.551,-0.594 -0.978,-1.281 -1.278,-2.061 -0.3,-0.781 -0.449,-1.603 -0.449,-2.467 v -0.036 c 0,-0.864 0.152,-1.689 0.459,-2.475 0.306,-0.786 0.734,-1.479 1.287,-2.079 0.551,-0.6 1.217,-1.077 1.998,-1.431 0.779,-0.354 1.649,-0.531 2.609,-0.531 0.947,0 1.813,0.177 2.592,0.531 0.78,0.354 1.446,0.828 1.998,1.422 0.552,0.594 0.979,1.281 1.278,2.061 0.3,0.78 0.45,1.602 0.45,2.466 0.012,0.012 0.012,0.024 0,0.036 0,0.864 -0.153,1.688 -0.459,2.475 -0.307,0.785 -0.735,1.479 -1.287,2.078 -0.553,0.6 -1.221,1.078 -2.008,1.432 -0.784,0.354 -1.651,0.532 -2.6,0.532 z m 0.036,-0.846 c 0.779,0 1.497,-0.148 2.15,-0.441 0.654,-0.295 1.219,-0.695 1.693,-1.207 0.473,-0.51 0.842,-1.105 1.106,-1.791 0.264,-0.683 0.396,-1.415 0.396,-2.195 v -0.036 c 0,-0.78 -0.135,-1.515 -0.404,-2.205 -0.271,-0.69 -0.643,-1.29 -1.116,-1.8 -0.474,-0.51 -1.042,-0.915 -1.701,-1.215 -0.66,-0.3 -1.38,-0.45 -2.16,-0.45 -0.78,0 -1.497,0.147 -2.151,0.441 -0.654,0.294 -1.218,0.696 -1.691,1.206 -0.475,0.51 -0.844,1.107 -1.107,1.791 -0.264,0.684 -0.396,1.417 -0.396,2.196 v 0.036 c 0,0.78 0.135,1.515 0.405,2.204 0.27,0.691 0.642,1.291 1.115,1.801 0.475,0.51 1.041,0.916 1.701,1.215 0.66,0.299 1.38,0.45 2.16,0.45 z"
   id="path3098"
   inkscape:connector-curvature="0"
   style="fill:#ffffff" />
</g>
</svg>
