<?xml version="1.0" encoding="UTF-8" standalone="no"?>
<!-- Generator: Adobe Illustrator 15.0.0, SVG Export Plug-In . SVG Version: 6.00 Build 0)  -->

<svg
   xmlns:dc="http://purl.org/dc/elements/1.1/"
   xmlns:cc="http://creativecommons.org/ns#"
   xmlns:rdf="http://www.w3.org/1999/02/22-rdf-syntax-ns#"
   xmlns:svg="http://www.w3.org/2000/svg"
   xmlns="http://www.w3.org/2000/svg"
   xmlns:sodipodi="http://sodipodi.sourceforge.net/DTD/sodipodi-0.dtd"
   xmlns:inkscape="http://www.inkscape.org/namespaces/inkscape"
   version="1.1"
   id="svg2"
   inkscape:version="0.48.4 r9939"
   sodipodi:docname="PIRflaggTransparentBakgr_svartRamme.svg"
   x="0px"
   y="0px"
   width="500"
   height="500"
   viewBox="0 0 500.00001 499.99999"
   enable-background="new 0 0 603.582 201.787"
   xml:space="preserve"
   inkscape:export-filename="C:\Users\captain8lue\Documents\Dropbox\DropBox Share\piratLogo2013\Piratpartiet\Nye\Bilder\test\PIRflaggOransje_svart.NO.png"
   inkscape:export-xdpi="90"
   inkscape:export-ydpi="90"><metadata
   id="metadata3116"><rdf:RDF><cc:Work
       rdf:about=""><dc:format>image/svg+xml</dc:format><dc:type
         rdf:resource="http://purl.org/dc/dcmitype/StillImage" /><dc:title></dc:title></cc:Work></rdf:RDF></metadata><defs
   id="defs3114">
  	
		
		
	</defs>
<sodipodi:namedview
   id="base"
   inkscape:window-y="-8"
   inkscape:window-x="-8"
   inkscape:window-height="746"
   inkscape:window-width="1366"
   inkscape:current-layer="layer5"
   inkscape:document-units="px"
   inkscape:pageshadow="2"
   inkscape:pageopacity="0.0"
   fit-margin-bottom="0"
   fit-margin-right="0"
   pagecolor="#ffffff"
   inkscape:cy="244.91699"
   fit-margin-left="0"
   fit-margin-top="0"
   inkscape:cx="252.93759"
   showgrid="false"
   inkscape:zoom="0.67420751"
   bordercolor="#666666"
   borderopacity="1.0"
   inkscape:window-maximized="1">
	</sodipodi:namedview>
<g
   id="layer2"
   inkscape:groupmode="layer"
   inkscape:label="Hvit tekstbakgrunn"
   transform="translate(149.1067,149.10554)">
	
</g>
<g
   id="layer3"
   inkscape:groupmode="layer"
   inkscape:label="Orange tekstbakgrunn"
   transform="translate(149.1067,149.10554)">
	
</g>
<g
   id="layer4"
   inkscape:groupmode="layer"
   inkscape:label="Tekst"
   transform="translate(149.1067,149.10554)">
	
	
</g>
<g
   id="layer6"
   inkscape:groupmode="layer"
   inkscape:label="Tekstomriss"
   transform="translate(149.1067,149.10554)">
	
</g>
<g
   id="layer5"
   inkscape:groupmode="layer"
   inkscape:label="Runding"
   transform="translate(149.1067,149.10554)">
	<path
   style="fill:none"
   d="m 100.89331,341.60255 c -132.725937,0 -240.70808,-107.98215 -240.70808,-240.70808 0,-132.725934 107.979665,-240.70808 240.70808,-240.70808 132.72841,0 240.70808,107.982146 240.70808,240.70808 0,132.72346 -107.97967,240.70808 -240.70808,240.70808"
   inkscape:connector-curvature="0"
   id="path3054" /><path
   d="m 100.89331,-149.10554 c -138.070655,0 -250.00001,111.92688 -250.00001,250.00001 0,138.07065 111.929355,250.00001 250.00001,250.00001 138.07065,0 250.00001,-111.92936 250.00001,-250.00001 0,-138.07313 -111.92936,-250.00001 -250.00001,-250.00001 l 0,0 0,0 z m 0,18.58386 c 127.60174,0 231.41614,103.814406 231.41614,231.41615 0,127.59927 -103.81192,231.41367 -231.41614,231.41367 -127.604225,0 -231.41615,-103.8144 -231.41615,-231.41367 0.002,-127.601744 103.814403,-231.41615 231.41615,-231.41615"
   inkscape:connector-curvature="0"
   id="path3056" /><path
   style="fill:#1b1b1b;fill-opacity:1"
   d="M 59.188644,142.01684 C 48.02346,148.41216 42.854669,153.2514 42.854669,153.2514 l 1.020874,-186.879304 c 0,0 13.7025,-0.421234 34.707218,14.297184 30.113299,21.10631 33.567419,34.632883 36.751449,77.613636 3.34757,45.198424 -29.828342,68.666124 -56.145566,83.733924 l 0,0 z M 217.42155,-43.841594 c -26.15616,-10.778639 -48.24122,-17.042639 -93.91787,-17.359803 -66.205634,-0.450969 -79.625659,6.130196 -79.625659,6.130196 V -89.795765 H 20.395455 v 39.828931 c 0,0 -4.930918,2.430769 -10.206257,5.104367 -6.273911,3.184035 -11.2296071,7.153547 -11.2296071,7.153547 H 19.374581 v 216.49207 c 0,0 -10.2062561,29.10976 -9.185383,45.95665 1.020874,16.84689 19.394117,60.25135 19.394117,60.25135 0,0 -12.644459,-37.52205 0,-67.39995 8.020794,-18.95306 12.760918,-30.13063 36.751443,-38.80805 23.990525,-8.67247 61.762852,-15.31806 98.001372,-22.45922 36.24101,-7.15355 61.76037,-15.83593 76.56303,-23.49 14.80267,-7.6615 39.30115,-21.95125 41.85581,-55.146985 2.55218,-33.193254 -6.5886,-97.310051 -65.33342,-121.528539"
   inkscape:connector-curvature="0"
   id="path3058" />
<g
   id="g3092"
   transform="matrix(2.4778481,0,0,2.4778481,-147.9369,-153.4537)"
   style="fill:#ffffff;fill-opacity:1"><path
     d="m 121.482,86.126 h 1.188 v 1.529 h -1.188 v -1.529 z"
     id="path3094"
     inkscape:connector-curvature="0"
     style="fill:#ffffff;fill-opacity:1;stroke:#000000;stroke-width:0.1;stroke-miterlimit:4;stroke-opacity:1;stroke-dasharray:none" /><path
     d="m 126.018,75.056 h 0.882 l 8.694,10.961 V 75.056 h 0.9 v 12.6 h -0.702 l -8.874,-11.195 v 11.195 h -0.9 v -12.6 z"
     id="path3096"
     inkscape:connector-curvature="0"
     style="fill:#ffffff;fill-opacity:1;stroke:#000000;stroke-width:0.1;stroke-miterlimit:4;stroke-opacity:1;stroke-dasharray:none" /><path
     d="m 145.997,87.873 c -0.96,0 -1.827,-0.178 -2.601,-0.531 -0.774,-0.354 -1.438,-0.828 -1.989,-1.422 -0.551,-0.594 -0.978,-1.281 -1.278,-2.061 -0.3,-0.781 -0.449,-1.603 -0.449,-2.467 v -0.036 c 0,-0.864 0.152,-1.689 0.459,-2.475 0.306,-0.786 0.734,-1.479 1.287,-2.079 0.551,-0.6 1.217,-1.077 1.998,-1.431 0.779,-0.354 1.649,-0.531 2.609,-0.531 0.947,0 1.813,0.177 2.592,0.531 0.78,0.354 1.446,0.828 1.998,1.422 0.552,0.594 0.979,1.281 1.278,2.061 0.3,0.78 0.45,1.602 0.45,2.466 0.012,0.012 0.012,0.024 0,0.036 0,0.864 -0.153,1.688 -0.459,2.475 -0.307,0.785 -0.735,1.479 -1.287,2.078 -0.553,0.6 -1.221,1.078 -2.008,1.432 -0.784,0.354 -1.651,0.532 -2.6,0.532 z m 0.036,-0.846 c 0.779,0 1.497,-0.148 2.15,-0.441 0.654,-0.295 1.219,-0.695 1.693,-1.207 0.473,-0.51 0.842,-1.105 1.106,-1.791 0.264,-0.683 0.396,-1.415 0.396,-2.195 v -0.036 c 0,-0.78 -0.135,-1.515 -0.404,-2.205 -0.271,-0.69 -0.643,-1.29 -1.116,-1.8 -0.474,-0.51 -1.042,-0.915 -1.701,-1.215 -0.66,-0.3 -1.38,-0.45 -2.16,-0.45 -0.78,0 -1.497,0.147 -2.151,0.441 -0.654,0.294 -1.218,0.696 -1.691,1.206 -0.475,0.51 -0.844,1.107 -1.107,1.791 -0.264,0.684 -0.396,1.417 -0.396,2.196 v 0.036 c 0,0.78 0.135,1.515 0.405,2.204 0.27,0.691 0.642,1.291 1.115,1.801 0.475,0.51 1.041,0.916 1.701,1.215 0.66,0.299 1.38,0.45 2.16,0.45 z"
     id="path3098"
     inkscape:connector-curvature="0"
     style="fill:#ffffff;fill-opacity:1;stroke:#000000;stroke-width:0.1;stroke-miterlimit:4;stroke-opacity:1;stroke-dasharray:none" /></g></g>

</svg> 
