<?xml version="1.0" encoding="UTF-8" standalone="no"?>
<!-- Generator: Adobe Illustrator 15.0.0, SVG Export Plug-In . SVG Version: 6.00 Build 0)  -->

<svg
   xmlns:dc="http://purl.org/dc/elements/1.1/"
   xmlns:cc="http://creativecommons.org/ns#"
   xmlns:rdf="http://www.w3.org/1999/02/22-rdf-syntax-ns#"
   xmlns:svg="http://www.w3.org/2000/svg"
   xmlns="http://www.w3.org/2000/svg"
   xmlns:sodipodi="http://sodipodi.sourceforge.net/DTD/sodipodi-0.dtd"
   xmlns:inkscape="http://www.inkscape.org/namespaces/inkscape"
   version="1.1"
   id="svg2"
   inkscape:version="0.48.4 r9939"
   sodipodi:docname="PIRfull_svartRamme.svg"
   x="0px"
   y="0px"
   width="747.79297"
   height="249.99997"
   viewBox="0 0 747.79301 249.99997"
   enable-background="new 0 0 603.582 201.787"
   xml:space="preserve"
   inkscape:export-filename="C:\Users\captain8lue\Documents\Dropbox\DropBox Share\piratLogo2013\Piratpartiet\Nye\Bilder\PIRfull_svartRamme.png"
   inkscape:export-xdpi="90"
   inkscape:export-ydpi="90"><metadata
   id="metadata3116"><rdf:RDF><cc:Work
       rdf:about=""><dc:format>image/svg+xml</dc:format><dc:type
         rdf:resource="http://purl.org/dc/dcmitype/StillImage" /><dc:title /></cc:Work></rdf:RDF></metadata><defs
   id="defs3114">
  	
		
		
	</defs>
<sodipodi:namedview
   id="base"
   inkscape:window-y="91"
   inkscape:window-x="134"
   inkscape:window-height="590"
   inkscape:window-width="898"
   inkscape:current-layer="layer5"
   inkscape:document-units="px"
   inkscape:pageshadow="2"
   inkscape:pageopacity="0.0"
   fit-margin-bottom="0"
   fit-margin-right="0"
   pagecolor="#ffffff"
   inkscape:cy="119.91698"
   fit-margin-left="0"
   fit-margin-top="0"
   inkscape:cx="377.3419"
   showgrid="false"
   inkscape:zoom="0.9534734"
   bordercolor="#666666"
   borderopacity="1.0"
   inkscape:window-maximized="0">
	</sodipodi:namedview>
<g
   id="layer2"
   inkscape:groupmode="layer"
   inkscape:label="Hvit tekstbakgrunn"
   transform="translate(72.105865,24.105514)">
	<path
   id="path3024"
   inkscape:connector-curvature="0"
   d="M 16.292215,208.76947 H 675.68717 V -8.8673382 H 16.292215 V 208.76947 l 0,0 z"
   style="fill:#ffffff" />
</g>
<g
   id="layer3"
   inkscape:groupmode="layer"
   inkscape:label="Orange tekstbakgrunn"
   transform="translate(72.105865,24.105514)">
	<path
   id="path3026"
   inkscape:connector-curvature="0"
   d="M 87.167336,208.76947 H 675.68593 V 102.56272 H 87.167336 v 106.20675 l 0,0 z"
   style="fill:#ff8800" />
</g>
<g
   id="layer4"
   inkscape:groupmode="layer"
   inkscape:label="Tekst"
   transform="translate(72.105865,24.105514)">
	<g
   id="g3021"
   transform="matrix(1.2389239,0,0,1.2389239,-162.80501,-558.66279)">
		<path
   id="path3030"
   inkscape:connector-curvature="0"
   d="m 322.023,487.417 h 4.501 c 3.541,0 6.027,-0.614 7.46,-1.845 1.433,-1.23 2.15,-2.805 2.15,-4.727 0,-1.865 -0.623,-3.447 -1.866,-4.746 -1.244,-1.298 -3.582,-1.945 -7.014,-1.945 h -5.231 v 13.263 l 0,0 z m -18.449,-25.35 h 30.533 c 6.648,0 11.63,1.582 14.94,4.745 3.312,3.164 4.968,7.667 4.968,13.506 0,6.004 -1.805,10.696 -5.414,14.075 -3.607,3.381 -9.116,5.071 -16.522,5.071 h -10.056 v 22.065 h -18.449 v -59.462"
   style="fill:#010101" />
		<path
   id="path3032"
   inkscape:connector-curvature="0"
   d="m 379.718,521.53 h 18.409 v -59.463 h -18.409 v 59.463 z"
   style="fill:#010101" />
		<path
   id="path3034"
   inkscape:connector-curvature="0"
   d="m 445.359,486.16 h 7.745 c 0.837,0 2.459,-0.27 4.866,-0.812 1.216,-0.244 2.208,-0.865 2.979,-1.866 0.771,-1 1.155,-2.148 1.155,-3.446 0,-1.921 -0.607,-3.394 -1.823,-4.421 -1.217,-1.028 -3.502,-1.542 -6.854,-1.542 h -8.068 v 12.087 l 0,0 z m -18.449,35.37 v -59.462 h 30.612 c 5.678,0 10.017,0.485 13.018,1.46 3,0.973 5.419,2.778 7.258,5.415 1.838,2.636 2.756,5.846 2.756,9.634 0,3.297 -0.702,6.145 -2.108,8.538 -1.406,2.393 -3.341,4.334 -5.803,5.82 -1.568,0.947 -3.717,1.731 -6.449,2.354 2.188,0.73 3.781,1.461 4.781,2.191 0.675,0.486 1.653,1.528 2.938,3.126 1.282,1.598 2.141,2.829 2.572,3.695 l 8.896,17.23 h -20.756 l -9.817,-18.171 c -1.245,-2.354 -2.353,-3.88 -3.326,-4.584 -1.323,-0.918 -2.823,-1.378 -4.5,-1.378 h -1.622 v 24.134 l -18.45,-0.002"
   style="fill:#010101" />
		<path
   id="path3036"
   inkscape:connector-curvature="0"
   d="m 539.356,498.856 -6.561,-21.376 -6.493,21.376 h 13.054 z m 3.811,12.859 h -20.854 l -2.898,9.815 h -18.753 l 22.341,-59.462 h 20.036 l 22.337,59.462 h -19.235 l -2.974,-9.815"
   style="fill:#010101" />
		<path
   id="path3038"
   inkscape:connector-curvature="0"
   d="m 576.683,462.067 h 55.834 v 14.683 h -18.733 v 44.78 h -18.368 v -44.78 h -18.732 v -14.683"
   style="fill:#010101" />
	</g>
	<g
   id="g3028"
   transform="matrix(1.2389239,0,0,1.2389239,-162.80501,-558.66279)">
		<path
   id="path3040"
   inkscape:connector-curvature="0"
   d="m 318.654,570.839 h 3.73 c 2.934,0 4.993,-0.51 6.181,-1.529 1.187,-1.02 1.78,-2.324 1.78,-3.914 0,-1.548 -0.515,-2.857 -1.545,-3.933 -1.03,-1.076 -2.969,-1.614 -5.812,-1.614 h -4.335 v 10.99 z m -15.285,-21.004 h 25.298 c 5.509,0 9.636,1.311 12.379,3.932 2.743,2.623 4.116,6.352 4.116,11.191 0,4.974 -1.495,8.861 -4.486,11.661 -2.989,2.802 -7.553,4.2 -13.688,4.2 h -8.333 v 18.283 H 303.37 v -49.267"
   style="fill:#ffffff" />
		<path
   id="path3042"
   inkscape:connector-curvature="0"
   d="m 375.775,580.315 -5.436,-17.711 -5.379,17.711 h 10.815 z m 3.158,10.654 h -17.277 l -2.4,8.133 h -15.539 l 18.511,-49.268 h 16.601 l 18.506,49.268 h -15.937 l -2.465,-8.133"
   style="fill:#ffffff" />
		<path
   id="path3044"
   inkscape:connector-curvature="0"
   d="m 419.033,569.796 h 6.417 c 0.694,0 2.038,-0.223 4.031,-0.67 1.009,-0.203 1.832,-0.719 2.469,-1.547 0.639,-0.828 0.959,-1.781 0.959,-2.857 0,-1.591 -0.504,-2.811 -1.513,-3.663 -1.009,-0.851 -2.899,-1.276 -5.677,-1.276 h -6.687 v 10.013 l 0.001,0 z m -15.285,29.306 v -49.268 h 25.365 c 4.703,0 8.297,0.402 10.783,1.209 2.485,0.807 4.49,2.303 6.013,4.486 1.523,2.185 2.286,4.846 2.286,7.982 0,2.732 -0.584,5.092 -1.749,7.073 -1.164,1.983 -2.769,3.591 -4.807,4.823 -1.301,0.784 -3.08,1.436 -5.344,1.949 1.811,0.605 3.132,1.211 3.961,1.816 0.559,0.402 1.371,1.268 2.434,2.59 1.063,1.324 1.773,2.343 2.131,3.062 l 7.372,14.276 h -17.196 l -8.136,-15.057 c -1.029,-1.949 -1.947,-3.215 -2.755,-3.797 -1.098,-0.762 -2.34,-1.143 -3.729,-1.143 h -1.345 v 19.996 h -15.284"
   style="fill:#ffffff" />
		<path
   id="path3046"
   inkscape:connector-curvature="0"
   d="m 454.374,549.835 h 46.262 v 12.166 h -15.521 v 37.102 h -15.219 v -37.102 h -15.521 v -12.166"
   style="fill:#ffffff" />
		<path
   id="path3048"
   inkscape:connector-curvature="0"
   d="m 509.503,599.102 h 15.253 v -49.268 h -15.253 v 49.268 z"
   style="fill:#ffffff" />
		<path
   id="path3050"
   inkscape:connector-curvature="0"
   d="m 537.016,549.835 h 40.783 v 10.52 h -25.532 v 7.829 h 23.687 v 10.048 h -23.687 v 9.713 h 26.272 v 11.158 h -41.523 v -49.268"
   style="fill:#ffffff" />
		<path
   id="path3052"
   inkscape:connector-curvature="0"
   d="m 584.653,549.835 h 46.26 v 12.166 h -15.521 v 37.102 h -15.218 v -37.102 h -15.521 v -12.166"
   style="fill:#ffffff" />
	</g>
</g>
<g
   id="layer6"
   inkscape:groupmode="layer"
   inkscape:label="Tekstomriss"
   transform="translate(72.105865,24.105514)">
	<path
   id="path3028"
   inkscape:connector-curvature="0"
   d="M 675.68593,-8.8673382 H 16.292215 V 208.76947 H 675.68593 V -8.8673382 l 0,0 z M 666.394,0.42459122 V 199.47754 H 25.584145 V 0.42459122 l 640.809855,0" />
</g>
<g
   id="layer5"
   inkscape:groupmode="layer"
   inkscape:label="Runding"
   transform="translate(72.105865,24.105514)">
	<path
   style="fill:#ffffff"
   d="m 52.894129,221.2485 c -66.362964,0 -120.354029,-53.99107 -120.354029,-120.35403 0,-66.36296 53.989826,-120.354025 120.354029,-120.354025 66.364201,0 120.354021,53.991065 120.354021,120.354025 0,66.36172 -53.98982,120.35403 -120.354021,120.35403"
   inkscape:connector-curvature="0"
   id="path3054" /><path
   d="m 52.894129,-24.10552 c -69.035323,0 -124.999994,55.963432 -124.999994,124.99999 0,69.03532 55.964671,124.99999 124.999994,124.99999 69.035321,0 124.999991,-55.96467 124.999991,-124.99999 0,-69.036558 -55.96467,-124.99999 -124.999991,-124.99999 l 0,0 0,0 z m 0,9.291929 c 63.800861,0 115.708061,51.907196 115.708061,115.708061 0,63.79963 -51.90596,115.70682 -115.708061,115.70682 -63.802108,0 -115.708065,-51.90719 -115.708065,-115.70682 0.0012,-63.800865 51.907196,-115.708061 115.708065,-115.708061"
   inkscape:connector-curvature="0"
   id="path3056" /><path
   style="fill:#000000;fill-opacity:1"
   d="m 32.041797,121.45565 c -5.582592,3.19766 -8.166987,5.61728 -8.166987,5.61728 l 0.510437,-93.43964 c 0,0 6.851249,-0.210617 17.353607,7.148591 15.056646,10.553154 16.783706,17.31644 18.375724,38.806814 1.673786,22.599215 -14.91417,34.333065 -28.072781,41.866955 l 0,0 z M 111.15824,28.526446 C 98.080162,23.137127 87.037633,20.005127 64.19931,19.846545 31.096498,19.621061 24.386486,22.911643 24.386486,22.911643 V 5.5493629 H 12.645204 V 25.463826 c 0,0 -2.465459,1.215384 -5.1031279,2.552183 -3.1369554,1.592017 -5.6148032,3.576774 -5.6148032,3.576774 H 12.134767 V 139.8388 c 0,0 -5.1031275,14.55488 -4.5926909,22.97833 0.5104367,8.42344 9.6970579,30.12567 9.6970579,30.12567 0,0 -6.322229,-18.76102 0,-33.69997 4.010396,-9.47653 6.380458,-15.06531 18.375719,-19.40403 11.995262,-4.33623 30.881422,-7.65902 49.000684,-11.2296 18.120503,-3.57678 30.880183,-7.91796 38.281513,-11.745 7.40133,-3.83075 19.65057,-10.97563 20.9279,-27.573491 1.27609,-16.596625 -3.2943,-48.655021 -32.66671,-60.764263"
   inkscape:connector-curvature="0"
   id="path3058" />
</g>

</svg>
