<?xml version="1.0" encoding="utf-8"?>
<!-- Generator: Adobe Illustrator 15.0.0, SVG Export Plug-In . SVG Version: 6.00 Build 0)  -->
<!DOCTYPE svg PUBLIC "-//W3C//DTD SVG 1.1//EN" "http://www.w3.org/Graphics/SVG/1.1/DTD/svg11.dtd">
<svg version="1.1"
   id="svg2" inkscape:version="0.48.0 r9654" sodipodi:docname="Piratpartiet_Norge.svg" xmlns:rdf="http://www.w3.org/1999/02/22-rdf-syntax-ns#" xmlns:inkscape="http://www.inkscape.org/namespaces/inkscape" xmlns:sodipodi="http://sodipodi.sourceforge.net/DTD/sodipodi-0.dtd" xmlns:dc="http://purl.org/dc/elements/1.1/" xmlns:cc="http://creativecommons.org/ns#" xmlns:svg="http://www.w3.org/2000/svg"
	 xmlns="http://www.w3.org/2000/svg" xmlns:xlink="http://www.w3.org/1999/xlink" x="0px" y="0px" width="603.582px"
	 height="201.787px" viewBox="0 0 603.582 201.787" enable-background="new 0 0 603.582 201.787" xml:space="preserve">
<sodipodi:namedview  id="base" inkscape:window-y="27" inkscape:window-x="0" inkscape:window-height="717" inkscape:window-width="1280" inkscape:current-layer="layer2" inkscape:document-units="px" inkscape:pageshadow="2" inkscape:pageopacity="0.0" fit-margin-bottom="0" fit-margin-right="0" pagecolor="#ffffff" inkscape:cy="100.89365" fit-margin-left="0" fit-margin-top="0" inkscape:cx="301.79132" showgrid="false" inkscape:zoom="1.9069468" bordercolor="#666666" borderopacity="1.0" inkscape:window-maximized="1">
	</sodipodi:namedview>
<g id="layer2" inkscape:groupmode="layer" inkscape:label="Hvit tekstbakgrunn">
	<path id="path3024" inkscape:connector-curvature="0" fill="#FFFFFF" d="M71.35,187.966h532.232V12.3H71.35V187.966L71.35,187.966z
		"/>
</g>
<g id="layer3" inkscape:groupmode="layer" inkscape:label="Orange tekstbakgrunn">
	<path id="path3026" inkscape:connector-curvature="0" fill="#FF8800" d="M128.557,187.966h475.024v-85.725H128.557V187.966
		L128.557,187.966z"/>
</g>
<g id="layer4" inkscape:groupmode="layer" inkscape:label="Tekst">
	<g id="g3021" transform="translate(-73.208693,-431.46853)">
		<path id="path3030" inkscape:connector-curvature="0" fill="#010101" d="M322.023,487.417h4.501c3.541,0,6.027-0.614,7.46-1.845
			c1.433-1.23,2.15-2.805,2.15-4.727c0-1.865-0.623-3.447-1.866-4.746c-1.244-1.298-3.582-1.945-7.014-1.945h-5.231V487.417
			L322.023,487.417z M303.574,462.067h30.533c6.648,0,11.63,1.582,14.94,4.745c3.312,3.164,4.968,7.667,4.968,13.506
			c0,6.004-1.805,10.696-5.414,14.075c-3.607,3.381-9.116,5.071-16.522,5.071h-10.056v22.065h-18.449V462.067"/>
		<path id="path3032" inkscape:connector-curvature="0" fill="#010101" d="M379.718,521.53h18.409v-59.463h-18.409V521.53z"/>
		<path id="path3034" inkscape:connector-curvature="0" fill="#010101" d="M445.359,486.16h7.745c0.837,0,2.459-0.27,4.866-0.812
			c1.216-0.244,2.208-0.865,2.979-1.866c0.771-1,1.155-2.148,1.155-3.446c0-1.921-0.607-3.394-1.823-4.421
			c-1.217-1.028-3.502-1.542-6.854-1.542h-8.068V486.16L445.359,486.16z M426.91,521.53v-59.462h30.612
			c5.678,0,10.017,0.485,13.018,1.46c3,0.973,5.419,2.778,7.258,5.415c1.838,2.636,2.756,5.846,2.756,9.634
			c0,3.297-0.702,6.145-2.108,8.538s-3.341,4.334-5.803,5.82c-1.568,0.947-3.717,1.731-6.449,2.354
			c2.188,0.73,3.781,1.461,4.781,2.191c0.675,0.486,1.653,1.528,2.938,3.126c1.282,1.598,2.141,2.829,2.572,3.695l8.896,17.23
			h-20.756l-9.817-18.171c-1.245-2.354-2.353-3.88-3.326-4.584c-1.323-0.918-2.823-1.378-4.5-1.378h-1.622v24.134L426.91,521.53"/>
		<path id="path3036" inkscape:connector-curvature="0" fill="#010101" d="M539.356,498.856l-6.561-21.376l-6.493,21.376H539.356z
			 M543.167,511.715h-20.854l-2.898,9.815h-18.753l22.341-59.462h20.036l22.337,59.462h-19.235L543.167,511.715"/>
		<path id="path3038" inkscape:connector-curvature="0" fill="#010101" d="M576.683,462.067h55.834v14.683h-18.733v44.78h-18.368
			v-44.78h-18.732V462.067"/>
	</g>
	<g id="g3028" transform="translate(-73.208693,-431.46853)">
		<path id="path3040" inkscape:connector-curvature="0" fill="#FFFFFF" d="M318.654,570.839h3.73c2.934,0,4.993-0.51,6.181-1.529
			c1.187-1.02,1.78-2.324,1.78-3.914c0-1.548-0.515-2.857-1.545-3.933s-2.969-1.614-5.812-1.614h-4.335V570.839z M303.369,549.835
			h25.298c5.509,0,9.636,1.311,12.379,3.932c2.743,2.623,4.116,6.352,4.116,11.191c0,4.974-1.495,8.861-4.486,11.661
			c-2.989,2.802-7.553,4.2-13.688,4.2h-8.333v18.283h-15.285V549.835"/>
		<path id="path3042" inkscape:connector-curvature="0" fill="#FFFFFF" d="M375.775,580.315l-5.436-17.711l-5.379,17.711H375.775z
			 M378.933,590.969h-17.277l-2.4,8.133h-15.539l18.511-49.268h16.601l18.506,49.268h-15.937L378.933,590.969"/>
		<path id="path3044" inkscape:connector-curvature="0" fill="#FFFFFF" d="M419.033,569.796h6.417c0.694,0,2.038-0.223,4.031-0.67
			c1.009-0.203,1.832-0.719,2.469-1.547c0.639-0.828,0.959-1.781,0.959-2.857c0-1.591-0.504-2.811-1.513-3.663
			c-1.009-0.851-2.899-1.276-5.677-1.276h-6.687V569.796L419.033,569.796z M403.748,599.102v-49.268h25.365
			c4.703,0,8.297,0.402,10.783,1.209c2.485,0.807,4.49,2.303,6.013,4.486c1.523,2.185,2.286,4.846,2.286,7.982
			c0,2.732-0.584,5.092-1.749,7.073c-1.164,1.983-2.769,3.591-4.807,4.823c-1.301,0.784-3.08,1.436-5.344,1.949
			c1.811,0.605,3.132,1.211,3.961,1.816c0.559,0.402,1.371,1.268,2.434,2.59c1.063,1.324,1.773,2.343,2.131,3.062l7.372,14.276
			h-17.196l-8.136-15.057c-1.029-1.949-1.947-3.215-2.755-3.797c-1.098-0.762-2.34-1.143-3.729-1.143h-1.345v19.996H403.748"/>
		<path id="path3046" inkscape:connector-curvature="0" fill="#FFFFFF" d="M454.374,549.835h46.262v12.166h-15.521v37.102h-15.219
			v-37.102h-15.521V549.835"/>
		<path id="path3048" inkscape:connector-curvature="0" fill="#FFFFFF" d="M509.503,599.102h15.253v-49.268h-15.253V599.102z"/>
		<path id="path3050" inkscape:connector-curvature="0" fill="#FFFFFF" d="M537.016,549.835h40.783v10.52h-25.532v7.829h23.687
			v10.048h-23.687v9.713h26.272v11.158h-41.523V549.835"/>
		<path id="path3052" inkscape:connector-curvature="0" fill="#FFFFFF" d="M584.653,549.835h46.26v12.166h-15.521v37.102h-15.218
			v-37.102h-15.521V549.835"/>
	</g>
</g>
<g id="layer6" inkscape:groupmode="layer" inkscape:label="Tekstomriss">
	<path id="path3028" inkscape:connector-curvature="0" d="M603.581,12.3H71.35v175.666h532.231V12.3L603.581,12.3z M596.081,19.8
		v160.666H78.85V19.8L596.081,19.8"/>
</g>
<g id="layer5" inkscape:groupmode="layer" inkscape:label="Runding">
	<g id="g3037" transform="translate(-73.208693,-431.46853)">
		<path id="path3054" inkscape:connector-curvature="0" fill="#FFFFFF" d="M174.102,629.507c-53.565,0-97.144-43.579-97.144-97.144
			c0-53.565,43.578-97.144,97.144-97.144s97.144,43.579,97.144,97.144C271.246,585.927,227.668,629.507,174.102,629.507"/>
		<path id="path3056" inkscape:connector-curvature="0" d="M174.102,431.469c-55.722,0-100.894,45.171-100.894,100.894
			c0,55.722,45.172,100.894,100.894,100.894s100.894-45.172,100.894-100.894C274.996,476.64,229.824,431.469,174.102,431.469
			L174.102,431.469L174.102,431.469z M174.102,438.969c51.497,0,93.394,41.897,93.394,93.394c0,51.496-41.896,93.393-93.394,93.393
			s-93.394-41.897-93.394-93.393C80.709,480.866,122.605,438.969,174.102,438.969"/>
		<path id="path3058" inkscape:connector-curvature="0" fill="#1B1B1B" d="M157.271,548.959c-4.506,2.581-6.592,4.534-6.592,4.534
			l0.412-75.42c0,0,5.53-0.17,14.007,5.77c12.153,8.518,13.547,13.977,14.832,31.323
			C181.281,533.407,167.892,542.878,157.271,548.959L157.271,548.959z M221.13,473.951c-10.556-4.35-19.469-6.878-37.903-7.006
			c-26.719-0.182-32.135,2.474-32.135,2.474v-14.014h-9.477v16.074c0,0-1.99,0.981-4.119,2.06c-2.532,1.285-4.532,2.887-4.532,2.887
			h8.239v87.371c0,0-4.119,11.748-3.707,18.547s7.827,24.316,7.827,24.316s-5.103-15.143,0-27.201
			c3.237-7.649,5.15-12.16,14.832-15.662c9.682-3.5,24.926-6.182,39.551-9.064c14.626-2.887,24.925-6.391,30.899-9.48
			c5.974-3.092,15.861-8.859,16.892-22.256C248.527,509.601,244.838,483.725,221.13,473.951"/>
	</g>
</g>
<g>
	<path fill="#FFFFFF" d="M121.482,86.126h1.188v1.529h-1.188V86.126z"/>
	<path fill="#FFFFFF" d="M126.018,75.056h0.882l8.694,10.961V75.056h0.9v12.6h-0.702l-8.874-11.195v11.195h-0.9V75.056z"/>
	<path fill="#FFFFFF" d="M145.997,87.873c-0.96,0-1.827-0.178-2.601-0.531c-0.774-0.354-1.438-0.828-1.989-1.422
		s-0.978-1.281-1.278-2.061c-0.3-0.781-0.449-1.603-0.449-2.467v-0.036c0-0.864,0.152-1.689,0.459-2.475
		c0.306-0.786,0.734-1.479,1.287-2.079c0.551-0.6,1.217-1.077,1.998-1.431c0.779-0.354,1.649-0.531,2.609-0.531
		c0.947,0,1.813,0.177,2.592,0.531c0.78,0.354,1.446,0.828,1.998,1.422c0.552,0.594,0.979,1.281,1.278,2.061
		c0.3,0.78,0.45,1.602,0.45,2.466c0.012,0.012,0.012,0.024,0,0.036c0,0.864-0.153,1.688-0.459,2.475
		c-0.307,0.785-0.735,1.479-1.287,2.078c-0.553,0.6-1.221,1.078-2.008,1.432C147.813,87.695,146.946,87.873,145.997,87.873z
		 M146.033,87.027c0.779,0,1.497-0.148,2.15-0.441c0.654-0.295,1.219-0.695,1.693-1.207c0.473-0.51,0.842-1.105,1.106-1.791
		c0.264-0.683,0.396-1.415,0.396-2.195v-0.036c0-0.78-0.135-1.515-0.404-2.205c-0.271-0.69-0.643-1.29-1.116-1.8
		c-0.474-0.51-1.042-0.915-1.701-1.215c-0.66-0.3-1.38-0.45-2.16-0.45s-1.497,0.147-2.151,0.441s-1.218,0.696-1.691,1.206
		c-0.475,0.51-0.844,1.107-1.107,1.791c-0.264,0.684-0.396,1.417-0.396,2.196v0.036c0,0.78,0.135,1.515,0.405,2.204
		c0.27,0.691,0.642,1.291,1.115,1.801c0.475,0.51,1.041,0.916,1.701,1.215C144.533,86.876,145.253,87.027,146.033,87.027z"/>
</g>
</svg>
